<svg width="294" height="294" viewBox="0 0 294 294" fill="none" xmlns="http://www.w3.org/2000/svg">
<path d="M238.875 91.875H202.125V55.125H238.875V91.875ZM55.125 238.875H91.875V202.125H55.125V238.875ZM55.125 91.875H91.875V55.125H55.125V91.875ZM280.219 9.1875H252.656C251.438 9.1875 250.269 9.67148 249.408 10.533C248.546 11.3945 248.062 12.5629 248.062 13.7812C248.062 14.9996 248.546 16.168 249.408 17.0295C250.269 17.891 251.438 18.375 252.656 18.375H275.625V41.3438C275.625 42.5621 276.109 43.7305 276.97 44.592C277.832 45.4535 279 45.9375 280.219 45.9375C281.437 45.9375 282.606 45.4535 283.467 44.592C284.329 43.7305 284.812 42.5621 284.812 41.3438V13.7812C284.812 12.5629 284.329 11.3945 283.467 10.533C282.606 9.67148 281.437 9.1875 280.219 9.1875ZM13.7812 45.9375C14.9996 45.9375 16.168 45.4535 17.0295 44.592C17.891 43.7305 18.375 42.5621 18.375 41.3438V18.375H41.3438C42.5621 18.375 43.7305 17.891 44.592 17.0295C45.4535 16.168 45.9375 14.9996 45.9375 13.7812C45.9375 12.5629 45.4535 11.3945 44.592 10.533C43.7305 9.67148 42.5621 9.1875 41.3438 9.1875H13.7812C12.5629 9.1875 11.3945 9.67148 10.533 10.533C9.67148 11.3945 9.1875 12.5629 9.1875 13.7812V41.3438C9.1875 42.5621 9.67148 43.7305 10.533 44.592C11.3945 45.4535 12.5629 45.9375 13.7812 45.9375ZM280.219 248.062C279 248.062 277.832 248.546 276.97 249.408C276.109 250.269 275.625 251.438 275.625 252.656V275.625H252.656C251.438 275.625 250.269 276.109 249.408 276.97C248.546 277.832 248.062 279 248.062 280.219C248.062 281.437 248.546 282.606 249.408 283.467C250.269 284.329 251.438 284.812 252.656 284.812H280.219C281.437 284.812 282.606 284.329 283.467 283.467C284.329 282.606 284.812 281.437 284.812 280.219V252.656C284.812 251.438 284.329 250.269 283.467 249.408C282.606 248.546 281.437 248.062 280.219 248.062ZM41.3438 275.625H18.375V252.656C18.375 251.438 17.891 250.269 17.0295 249.408C16.168 248.546 14.9996 248.062 13.7812 248.062C12.5629 248.062 11.3945 248.546 10.533 249.408C9.67148 250.269 9.1875 251.438 9.1875 252.656V280.219C9.1875 281.437 9.67148 282.606 10.533 283.467C11.3945 284.329 12.5629 284.812 13.7812 284.812H41.3438C42.5621 284.812 43.7305 284.329 44.592 283.467C45.4535 282.606 45.9375 281.437 45.9375 280.219C45.9375 279 45.4535 277.832 44.592 276.97C43.7305 276.109 42.5621 275.625 41.3438 275.625ZM119.438 32.1562V114.844C119.438 116.062 118.954 117.231 118.092 118.092C117.231 118.954 116.062 119.438 114.844 119.438H32.1562C30.9379 119.438 29.7695 118.954 28.908 118.092C28.0465 117.231 27.5625 116.062 27.5625 114.844V32.1562C27.5625 30.9379 28.0465 29.7695 28.908 28.908C29.7695 28.0465 30.9379 27.5625 32.1562 27.5625H114.844C116.062 27.5625 117.231 28.0465 118.092 28.908C118.954 29.7695 119.438 30.9379 119.438 32.1562ZM101.062 50.5312C101.062 49.3129 100.579 48.1445 99.717 47.283C98.8555 46.4215 97.6871 45.9375 96.4688 45.9375H50.5312C49.3129 45.9375 48.1445 46.4215 47.283 47.283C46.4215 48.1445 45.9375 49.3129 45.9375 50.5312V96.4688C45.9375 97.6871 46.4215 98.8555 47.283 99.717C48.1445 100.579 49.3129 101.062 50.5312 101.062H96.4688C97.6871 101.062 98.8555 100.579 99.717 99.717C100.579 98.8555 101.062 97.6871 101.062 96.4688V50.5312ZM179.156 119.15C177.938 119.15 176.769 118.666 175.908 117.805C175.046 116.943 174.562 115.775 174.562 114.557V32.1562C174.562 30.9379 175.046 29.7695 175.908 28.908C176.769 28.0465 177.938 27.5625 179.156 27.5625H261.844C263.062 27.5625 264.231 28.0465 265.092 28.908C265.954 29.7695 266.438 30.9379 266.438 32.1562V114.557C266.438 115.775 265.954 116.943 265.092 117.805C264.231 118.666 263.062 119.15 261.844 119.15H179.156ZM192.938 96.4688C192.938 97.6871 193.421 98.8555 194.283 99.717C195.144 100.579 196.313 101.062 197.531 101.062H243.469C244.687 101.062 245.856 100.579 246.717 99.717C247.579 98.8555 248.062 97.6871 248.062 96.4688V50.5312C248.062 49.3129 247.579 48.1445 246.717 47.283C245.856 46.4215 244.687 45.9375 243.469 45.9375H197.531C196.313 45.9375 195.144 46.4215 194.283 47.283C193.421 48.1445 192.938 49.3129 192.938 50.5312V96.4688ZM119.438 179.156V261.844C119.438 263.062 118.954 264.231 118.092 265.092C117.231 265.954 116.062 266.438 114.844 266.438H32.1562C30.9379 266.438 29.7695 265.954 28.908 265.092C28.0465 264.231 27.5625 263.062 27.5625 261.844V179.156C27.5625 177.938 28.0465 176.769 28.908 175.908C29.7695 175.046 30.9379 174.562 32.1562 174.562H114.844C116.062 174.562 117.231 175.046 118.092 175.908C118.954 176.769 119.438 177.938 119.438 179.156ZM101.062 197.531C101.062 196.313 100.579 195.144 99.717 194.283C98.8555 193.421 97.6871 192.938 96.4688 192.938H50.5312C49.3129 192.938 48.1445 193.421 47.283 194.283C46.4215 195.144 45.9375 196.313 45.9375 197.531V243.469C45.9375 244.687 46.4215 245.856 47.283 246.717C48.1445 247.579 49.3129 248.062 50.5312 248.062H96.4688C97.6871 248.062 98.8555 247.579 99.717 246.717C100.579 245.856 101.062 244.687 101.062 243.469V197.531ZM133.219 64.3125C134.437 64.3125 135.606 63.8285 136.467 62.967C137.329 62.1055 137.812 60.9371 137.812 59.7188V36.75H142.406C143.625 36.75 144.793 36.266 145.655 35.4045C146.516 34.543 147 33.3746 147 32.1562C147 30.9379 146.516 29.7695 145.655 28.908C144.793 28.0465 143.625 27.5625 142.406 27.5625H133.219C132 27.5625 130.832 28.0465 129.97 28.908C129.109 29.7695 128.625 30.9379 128.625 32.1562V59.7188C128.625 60.9371 129.109 62.1055 129.97 62.967C130.832 63.8285 132 64.3125 133.219 64.3125ZM160.781 36.75C161.69 36.75 162.578 36.4806 163.333 35.9758C164.089 35.471 164.678 34.7536 165.025 33.9142C165.373 33.0748 165.464 32.1512 165.287 31.2601C165.109 30.369 164.672 29.5504 164.03 28.908C163.387 28.2655 162.569 27.828 161.677 27.6508C160.786 27.4735 159.863 27.5645 159.023 27.9122C158.184 28.2599 157.466 28.8487 156.962 29.6041C156.457 30.3595 156.188 31.2477 156.188 32.1562C156.188 33.3746 156.671 34.543 157.533 35.4045C158.394 36.266 159.563 36.75 160.781 36.75ZM151.594 64.3125H160.781C162 64.3125 163.168 63.8285 164.03 62.967C164.891 62.1055 165.375 60.9371 165.375 59.7188V50.5312C165.375 49.3129 164.891 48.1445 164.03 47.283C163.168 46.4215 162 45.9375 160.781 45.9375C159.563 45.9375 158.394 46.4215 157.533 47.283C156.671 48.1445 156.188 49.3129 156.188 50.5312V55.125H151.594C150.375 55.125 149.207 55.609 148.345 56.4705C147.484 57.332 147 58.5004 147 59.7188C147 60.9371 147.484 62.1055 148.345 62.967C149.207 63.8285 150.375 64.3125 151.594 64.3125ZM160.781 78.0938H151.594C150.375 78.0938 149.207 78.5777 148.345 79.4392C147.484 80.3007 147 81.4692 147 82.6875V101.062C147 102.281 147.484 103.449 148.345 104.311C149.207 105.172 150.375 105.656 151.594 105.656C152.812 105.656 153.981 105.172 154.842 104.311C155.704 103.449 156.188 102.281 156.188 101.062V87.2812H160.781C162 87.2812 163.168 86.7973 164.03 85.9358C164.891 85.0743 165.375 83.9058 165.375 82.6875C165.375 81.4692 164.891 80.3007 164.03 79.4392C163.168 78.5777 162 78.0938 160.781 78.0938ZM133.219 119.438H160.781C162 119.438 163.168 118.954 164.03 118.092C164.891 117.231 165.375 116.062 165.375 114.844C165.375 113.625 164.891 112.457 164.03 111.595C163.168 110.734 162 110.25 160.781 110.25H137.812V78.0938C137.812 76.8754 137.329 75.707 136.467 74.8455C135.606 73.984 134.437 73.5 133.219 73.5C132 73.5 130.832 73.984 129.97 74.8455C129.109 75.707 128.625 76.8754 128.625 78.0938V114.844C128.625 116.062 129.109 117.231 129.97 118.092C130.832 118.954 132 119.438 133.219 119.438ZM169.969 229.688C168.75 229.688 167.582 230.171 166.72 231.033C165.859 231.894 165.375 233.063 165.375 234.281V257.25H151.594C150.375 257.25 149.207 257.734 148.345 258.595C147.484 259.457 147 260.625 147 261.844C147 263.062 147.484 264.231 148.345 265.092C149.207 265.954 150.375 266.438 151.594 266.438H169.969C171.187 266.438 172.356 265.954 173.217 265.092C174.079 264.231 174.562 263.062 174.562 261.844V234.281C174.562 233.063 174.079 231.894 173.217 231.033C172.356 230.171 171.187 229.688 169.969 229.688ZM133.219 257.25C132.31 257.25 131.422 257.519 130.667 258.024C129.911 258.529 129.322 259.246 128.975 260.086C128.627 260.925 128.536 261.849 128.713 262.74C128.891 263.631 129.328 264.45 129.97 265.092C130.613 265.734 131.431 266.172 132.323 266.349C133.214 266.526 134.137 266.436 134.977 266.088C135.816 265.74 136.534 265.151 137.038 264.396C137.543 263.64 137.812 262.752 137.812 261.844C137.812 260.625 137.329 259.457 136.467 258.595C135.606 257.734 134.437 257.25 133.219 257.25ZM156.188 234.281C156.188 233.063 155.704 231.894 154.842 231.033C153.981 230.171 152.812 229.688 151.594 229.688H133.219C132 229.688 130.832 230.171 129.97 231.033C129.109 231.894 128.625 233.063 128.625 234.281V243.469C128.625 244.687 129.109 245.856 129.97 246.717C130.832 247.579 132 248.062 133.219 248.062C134.437 248.062 135.606 247.579 136.467 246.717C137.329 245.856 137.812 244.687 137.812 243.469V238.875H151.594C152.812 238.875 153.981 238.391 154.842 237.53C155.704 236.668 156.188 235.5 156.188 234.281ZM133.219 183.75C134.437 183.75 135.606 183.266 136.467 182.405C137.329 181.543 137.812 180.375 137.812 179.156V156.188H147C148.218 156.188 149.387 155.704 150.248 154.842C151.11 153.981 151.594 152.812 151.594 151.594C151.594 150.375 151.11 149.207 150.248 148.345C149.387 147.484 148.218 147 147 147H133.219C132 147 130.832 147.484 129.97 148.345C129.109 149.207 128.625 150.375 128.625 151.594V179.156C128.625 180.375 129.109 181.543 129.97 182.405C130.832 183.266 132 183.75 133.219 183.75ZM133.219 137.812H160.781V160.781C160.781 162 161.265 163.168 162.127 164.03C162.988 164.891 164.157 165.375 165.375 165.375C166.593 165.375 167.762 164.891 168.623 164.03C169.485 163.168 169.969 162 169.969 160.781V133.219C169.969 132 169.485 130.832 168.623 129.97C167.762 129.109 166.593 128.625 165.375 128.625H133.219C132 128.625 130.832 129.109 129.97 129.97C129.109 130.832 128.625 132 128.625 133.219C128.625 134.437 129.109 135.606 129.97 136.467C130.832 137.329 132 137.812 133.219 137.812ZM32.1562 147C30.9379 147 29.7695 147.484 28.908 148.345C28.0465 149.207 27.5625 150.375 27.5625 151.594V160.781C27.5625 162 28.0465 163.168 28.908 164.03C29.7695 164.891 30.9379 165.375 32.1562 165.375H59.7188C60.9371 165.375 62.1055 164.891 62.967 164.03C63.8285 163.168 64.3125 162 64.3125 160.781C64.3125 159.563 63.8285 158.394 62.967 157.533C62.1055 156.671 60.9371 156.188 59.7188 156.188H36.75V151.594C36.75 150.375 36.266 149.207 35.4045 148.345C34.543 147.484 33.3746 147 32.1562 147ZM50.5312 128.625H32.1562C30.9379 128.625 29.7695 129.109 28.908 129.97C28.0465 130.832 27.5625 132 27.5625 133.219C27.5625 134.437 28.0465 135.606 28.908 136.467C29.7695 137.329 30.9379 137.812 32.1562 137.812H45.9375V142.406C45.9375 143.625 46.4215 144.793 47.283 145.655C48.1445 146.516 49.3129 147 50.5312 147C51.7496 147 52.918 146.516 53.7795 145.655C54.641 144.793 55.125 143.625 55.125 142.406V133.219C55.125 132 54.641 130.832 53.7795 129.97C52.918 129.109 51.7496 128.625 50.5312 128.625ZM68.9062 128.625C67.6879 128.625 66.5195 129.109 65.658 129.97C64.7965 130.832 64.3125 132 64.3125 133.219V142.406C64.3125 143.625 64.7965 144.793 65.658 145.655C66.5195 146.516 67.6879 147 68.9062 147H96.4688C97.6871 147 98.8555 146.516 99.717 145.655C100.579 144.793 101.062 143.625 101.062 142.406C101.062 141.188 100.579 140.019 99.717 139.158C98.8555 138.296 97.6871 137.812 96.4688 137.812H73.5V133.219C73.5 132 73.016 130.832 72.1545 129.97C71.293 129.109 70.1246 128.625 68.9062 128.625ZM114.844 128.625C113.625 128.625 112.457 129.109 111.595 129.97C110.734 130.832 110.25 132 110.25 133.219V156.188H78.0938C76.8754 156.188 75.707 156.671 74.8455 157.533C73.984 158.394 73.5 159.563 73.5 160.781C73.5 162 73.984 163.168 74.8455 164.03C75.707 164.891 76.8754 165.375 78.0938 165.375H114.844C116.062 165.375 117.231 164.891 118.092 164.03C118.954 163.168 119.438 162 119.438 160.781V133.219C119.438 132 118.954 130.832 118.092 129.97C117.231 129.109 116.062 128.625 114.844 128.625ZM266.438 133.219C266.438 132 265.954 130.832 265.092 129.97C264.231 129.109 263.062 128.625 261.844 128.625H234.281C233.063 128.625 231.894 129.109 231.033 129.97C230.171 130.832 229.688 132 229.688 133.219C229.688 134.437 230.171 135.606 231.033 136.467C231.894 137.329 233.063 137.812 234.281 137.812H257.25V142.406C257.25 143.625 257.734 144.793 258.595 145.655C259.457 146.516 260.625 147 261.844 147C263.062 147 264.231 146.516 265.092 145.655C265.954 144.793 266.438 143.625 266.438 142.406V133.219ZM188.344 179.156C188.344 178.248 188.074 177.36 187.57 176.604C187.065 175.849 186.347 175.26 185.508 174.912C184.669 174.564 183.745 174.474 182.854 174.651C181.963 174.828 181.144 175.266 180.502 175.908C179.859 176.55 179.422 177.369 179.245 178.26C179.067 179.151 179.158 180.075 179.506 180.914C179.854 181.754 180.442 182.471 181.198 182.976C181.953 183.481 182.841 183.75 183.75 183.75C184.968 183.75 186.137 183.266 186.998 182.405C187.86 181.543 188.344 180.375 188.344 179.156ZM248.062 160.781V151.594C248.062 150.375 247.579 149.207 246.717 148.345C245.856 147.484 244.687 147 243.469 147C242.25 147 241.082 147.484 240.22 148.345C239.359 149.207 238.875 150.375 238.875 151.594V156.188H220.5C219.282 156.188 218.113 156.671 217.252 157.533C216.39 158.394 215.906 159.563 215.906 160.781C215.906 162 216.39 163.168 217.252 164.03C218.113 164.891 219.282 165.375 220.5 165.375H243.469C244.687 165.375 245.856 164.891 246.717 164.03C247.579 163.168 248.062 162 248.062 160.781ZM202.125 183.75H224.52C225.738 183.75 226.906 183.266 227.768 182.405C228.629 181.543 229.113 180.375 229.113 179.156C229.113 177.938 228.629 176.769 227.768 175.908C226.906 175.046 225.738 174.562 224.52 174.562H206.719V151.594C206.719 150.375 206.235 149.207 205.373 148.345C204.512 147.484 203.343 147 202.125 147C200.907 147 199.738 147.484 198.877 148.345C198.015 149.207 197.531 150.375 197.531 151.594V179.156C197.531 180.375 198.015 181.543 198.877 182.405C199.738 183.266 200.907 183.75 202.125 183.75ZM220.5 133.219C220.5 132 220.016 130.832 219.155 129.97C218.293 129.109 217.125 128.625 215.906 128.625H183.75C182.532 128.625 181.363 129.109 180.502 129.97C179.64 130.832 179.156 132 179.156 133.219V160.781C179.156 162 179.64 163.168 180.502 164.03C181.363 164.891 182.532 165.375 183.75 165.375C184.968 165.375 186.137 164.891 186.998 164.03C187.86 163.168 188.344 162 188.344 160.781V137.812H215.906C217.125 137.812 218.293 137.329 219.155 136.467C220.016 135.606 220.5 134.437 220.5 133.219ZM261.844 266.438H188.344C187.125 266.438 185.957 265.954 185.095 265.092C184.234 264.231 183.75 263.062 183.75 261.844V197.531C183.75 196.313 184.234 195.144 185.095 194.283C185.957 193.421 187.125 192.938 188.344 192.938H261.844C263.062 192.938 264.231 193.421 265.092 194.283C265.954 195.144 266.438 196.313 266.438 197.531V261.844C266.438 263.062 265.954 264.231 265.092 265.092C264.231 265.954 263.062 266.438 261.844 266.438ZM202.125 215.906C202.125 216.815 202.394 217.703 202.899 218.458C203.404 219.214 204.121 219.803 204.961 220.15C205.8 220.498 206.724 220.589 207.615 220.412C208.506 220.234 209.325 219.797 209.967 219.155C210.609 218.512 211.047 217.694 211.224 216.802C211.401 215.911 211.311 214.988 210.963 214.148C210.615 213.309 210.026 212.591 209.271 212.087C208.515 211.582 207.627 211.312 206.719 211.312C205.5 211.312 204.332 211.796 203.47 212.658C202.609 213.519 202.125 214.688 202.125 215.906ZM229.688 243.469C229.688 242.25 229.204 241.082 228.342 240.22C227.481 239.359 226.312 238.875 225.094 238.875H211.312V234.281C211.312 233.063 210.829 231.894 209.967 231.033C209.106 230.171 207.937 229.688 206.719 229.688C205.5 229.688 204.332 230.171 203.47 231.033C202.609 231.894 202.125 233.063 202.125 234.281V243.469C202.125 244.687 202.609 245.856 203.47 246.717C204.332 247.579 205.5 248.062 206.719 248.062H225.094C226.312 248.062 227.481 247.579 228.342 246.717C229.204 245.856 229.688 244.687 229.688 243.469ZM248.062 243.469C248.062 242.56 247.793 241.672 247.288 240.917C246.784 240.161 246.066 239.572 245.227 239.225C244.387 238.877 243.464 238.786 242.573 238.963C241.681 239.141 240.863 239.578 240.22 240.22C239.578 240.863 239.141 241.681 238.963 242.573C238.786 243.464 238.877 244.387 239.225 245.227C239.572 246.066 240.161 246.784 240.917 247.288C241.672 247.793 242.56 248.062 243.469 248.062C244.687 248.062 245.856 247.579 246.717 246.717C247.579 245.856 248.062 244.687 248.062 243.469ZM248.062 215.906C248.062 214.688 247.579 213.519 246.717 212.658C245.856 211.796 244.687 211.312 243.469 211.312H225.094C223.875 211.312 222.707 211.796 221.845 212.658C220.984 213.519 220.5 214.688 220.5 215.906C220.5 217.125 220.984 218.293 221.845 219.155C222.707 220.016 223.875 220.5 225.094 220.5H238.875V225.094C238.875 226.312 239.359 227.481 240.22 228.342C241.082 229.204 242.25 229.688 243.469 229.688C244.687 229.688 245.856 229.204 246.717 228.342C247.579 227.481 248.062 226.312 248.062 225.094V215.906ZM165.375 183.75C166.593 183.75 167.762 183.266 168.623 182.405C169.485 181.543 169.969 180.375 169.969 179.156C169.969 177.938 169.485 176.769 168.623 175.908C167.762 175.046 166.593 174.562 165.375 174.562H156.762C155.543 174.562 154.375 175.046 153.513 175.908C152.652 176.769 152.168 177.938 152.168 179.156C152.168 180.375 152.652 181.543 153.513 182.405C154.375 183.266 155.543 183.75 156.762 183.75H165.375ZM243.469 183.75H261.844C263.062 183.75 264.231 183.266 265.092 182.405C265.954 181.543 266.438 180.375 266.438 179.156V160.781C266.438 159.563 265.954 158.394 265.092 157.533C264.231 156.671 263.062 156.188 261.844 156.188C260.625 156.188 259.457 156.671 258.595 157.533C257.734 158.394 257.25 159.563 257.25 160.781V174.562H243.469C242.25 174.562 241.082 175.046 240.22 175.908C239.359 176.769 238.875 177.938 238.875 179.156C238.875 180.375 239.359 181.543 240.22 182.405C241.082 183.266 242.25 183.75 243.469 183.75ZM133.219 220.5C134.437 220.5 135.606 220.016 136.467 219.155C137.329 218.293 137.812 217.125 137.812 215.906V197.531C137.812 196.313 137.329 195.144 136.467 194.283C135.606 193.421 134.437 192.938 133.219 192.938C132 192.938 130.832 193.421 129.97 194.283C129.109 195.144 128.625 196.313 128.625 197.531V215.906C128.625 217.125 129.109 218.293 129.97 219.155C130.832 220.016 132 220.5 133.219 220.5ZM169.969 192.938C168.75 192.938 167.582 193.421 166.72 194.283C165.859 195.144 165.375 196.313 165.375 197.531V215.906C165.375 217.125 165.859 218.293 166.72 219.155C167.582 220.016 168.75 220.5 169.969 220.5C171.187 220.5 172.356 220.016 173.217 219.155C174.079 218.293 174.562 217.125 174.562 215.906V197.531C174.562 196.313 174.079 195.144 173.217 194.283C172.356 193.421 171.187 192.938 169.969 192.938ZM151.594 211.312C150.685 211.312 149.797 211.582 149.042 212.087C148.286 212.591 147.697 213.309 147.35 214.148C147.002 214.988 146.911 215.911 147.088 216.802C147.266 217.694 147.703 218.512 148.345 219.155C148.988 219.797 149.806 220.234 150.698 220.412C151.589 220.589 152.512 220.498 153.352 220.15C154.191 219.803 154.909 219.214 155.413 218.458C155.918 217.703 156.188 216.815 156.188 215.906C156.188 214.688 155.704 213.519 154.842 212.658C153.981 211.796 152.812 211.312 151.594 211.312ZM151.594 192.938C150.685 192.938 149.797 193.207 149.042 193.712C148.286 194.216 147.697 194.934 147.35 195.773C147.002 196.613 146.911 197.536 147.088 198.427C147.266 199.319 147.703 200.137 148.345 200.78C148.988 201.422 149.806 201.859 150.698 202.037C151.589 202.214 152.512 202.123 153.352 201.775C154.191 201.428 154.909 200.839 155.413 200.083C155.918 199.328 156.188 198.44 156.188 197.531C156.188 196.313 155.704 195.144 154.842 194.283C153.981 193.421 152.812 192.938 151.594 192.938Z" fill="white"/>
</svg>
